<svg width="24" height="25" viewBox="0 0 24 25" fill="none" xmlns="http://www.w3.org/2000/svg">
<path fill-rule="evenodd" clip-rule="evenodd" d="M18.2974 5.74295C17.9174 5.81095 17.3814 5.98694 16.5214 6.27294L10.0294 8.43795C9.20141 8.71395 8.61741 8.90894 8.19741 9.07294C8.04356 9.13179 7.89271 9.19821 7.74541 9.27194C7.65941 9.31695 7.62941 9.34194 7.62741 9.34194C7.53109 9.43518 7.45451 9.54684 7.4022 9.67027C7.34989 9.7937 7.32294 9.92639 7.32294 10.0604C7.32294 10.1945 7.34989 10.3272 7.4022 10.4506C7.45451 10.5741 7.53109 10.6857 7.62741 10.7789C7.66507 10.8053 7.7045 10.829 7.74541 10.8499C7.84541 10.9029 7.99041 10.9679 8.19741 11.0499C8.61741 11.2129 9.20141 11.4079 10.0294 11.6839L10.0854 11.7029C10.3584 11.7929 10.5984 11.8729 10.8194 11.9899C11.3522 12.2716 11.7878 12.7072 12.0694 13.2399C12.1864 13.4599 12.2664 13.6999 12.3564 13.9739L12.3764 14.0299C12.6514 14.8579 12.8464 15.4419 13.0104 15.8619C13.0674 16.0166 13.1338 16.1675 13.2094 16.3139C13.2544 16.3999 13.2794 16.4299 13.2794 16.4319C13.3727 16.5283 13.4843 16.6049 13.6077 16.6572C13.7312 16.7095 13.8639 16.7364 13.9979 16.7364C14.132 16.7364 14.2647 16.7095 14.3881 16.6572C14.5115 16.6049 14.6232 16.5283 14.7164 16.4319C14.7428 16.3943 14.7665 16.3549 14.7874 16.3139C14.8404 16.2139 14.9054 16.0689 14.9874 15.8609C15.1504 15.4409 15.3454 14.8579 15.6214 14.0309L17.7844 7.53995C18.0714 6.67994 18.2474 6.14195 18.3144 5.76295L18.3194 5.73994L18.2974 5.74295ZM17.9474 3.77395C18.4974 3.67595 19.2524 3.64694 19.8324 4.22694C20.4124 4.80694 20.3824 5.56095 20.2854 6.11195C20.1894 6.65395 19.9624 7.33294 19.7074 8.09894L19.6834 8.17095L17.5194 14.6609L17.5094 14.6909C17.2454 15.4829 17.0354 16.1149 16.8504 16.5869C16.6774 17.0319 16.4724 17.4919 16.1624 17.8139C15.8825 18.1052 15.5466 18.337 15.1749 18.4952C14.8032 18.6535 14.4034 18.7351 13.9994 18.7351C13.5954 18.7351 13.1956 18.6535 12.8239 18.4952C12.4522 18.337 12.1164 18.1052 11.8364 17.8139C11.5264 17.4919 11.3214 17.0319 11.1484 16.5869C10.9634 16.1149 10.7534 15.4829 10.4884 14.6899L10.4784 14.6619C10.3584 14.3009 10.3314 14.2289 10.3024 14.1739C10.2085 13.9962 10.0632 13.8509 9.88541 13.7569C9.83041 13.7269 9.75841 13.7009 9.39741 13.5799L9.36941 13.5699C8.57641 13.3059 7.94441 13.0959 7.47141 12.9109C7.02741 12.7379 6.56741 12.5329 6.24541 12.2229C5.95414 11.943 5.7224 11.6071 5.56411 11.2354C5.40581 10.8638 5.32422 10.4639 5.32422 10.0599C5.32422 9.65596 5.40581 9.25613 5.56411 8.88445C5.7224 8.51276 5.95414 8.17688 6.24541 7.89694C6.56741 7.58695 7.02741 7.38195 7.47141 7.20895C8.09909 6.97484 8.73191 6.75479 9.36941 6.54894L9.39741 6.53895L15.8884 4.37595L15.9604 4.35194C16.7264 4.09694 17.4054 3.86995 17.9474 3.77395Z" fill="#3CFF00"/>
</svg>
