<svg width="24" height="24" viewBox="0 0 24 24" fill="none" xmlns="http://www.w3.org/2000/svg">
<path d="M21.329 11.3251C20.429 11.1728 19.4915 11.0731 18.7295 11.0461L18.5945 11.0416C18.626 10.9741 18.6493 10.9291 18.6568 10.9216C18.6733 10.9081 18.6868 10.8511 18.6883 10.7956C18.6883 10.7656 18.7018 10.6651 18.7228 10.5331C18.9298 10.5406 19.2028 10.5466 19.5028 10.5481C20.6548 10.5578 21.8608 10.6508 22.688 10.7971C23.1808 10.8841 23.3435 10.8811 22.9805 10.7926C22.6115 10.7026 21.5195 10.5721 20.6495 10.5151C20.0115 10.4767 19.3724 10.4612 18.7333 10.4686C18.7483 10.3831 18.7633 10.2886 18.7813 10.1911C18.8503 9.81307 18.8735 9.43357 18.875 8.67832C18.8765 7.50832 18.8135 7.18582 18.4325 6.41032C18.2886 6.11153 18.1058 5.83312 17.8888 5.58232C18.074 5.03482 18.0688 4.18882 17.8775 3.44632C17.72 2.83732 17.6638 2.79832 17.1125 2.91532C16.6438 3.01507 16.2688 3.15082 15.788 3.39307C15.56 3.50782 15.2465 3.68557 15.0193 3.82657C14.4268 3.61882 13.814 3.48157 13.1593 3.40657C12.497 3.33157 10.8718 3.37357 10.2943 3.48007C9.73178 3.58507 9.22328 3.71257 8.76429 3.86257C8.53403 3.72157 8.20179 3.53032 7.96328 3.41032C7.48029 3.16732 7.10529 3.03232 6.63579 2.93257C6.08529 2.81482 6.02829 2.85457 5.87078 3.46357C5.67579 4.21582 5.67429 5.07607 5.86704 5.62207C5.88954 5.68432 5.90304 5.72857 5.90829 5.76307C5.12679 6.74707 4.87178 7.84807 5.04129 9.38557C5.08629 9.78532 5.15379 10.1528 5.24979 10.4896C4.75104 10.4866 4.04229 10.5046 3.52929 10.5376C2.65779 10.5953 1.56579 10.7251 1.19679 10.8151C0.834535 10.9028 0.995785 10.9051 1.48929 10.8196C2.31654 10.6741 3.52329 10.5796 4.67529 10.5721C4.89279 10.5706 5.09529 10.5661 5.27079 10.5616C5.32329 10.7393 5.38329 10.9088 5.45079 11.0701H5.44704C4.68579 11.0971 3.74904 11.1976 2.84829 11.3476C2.17329 11.4616 1.17579 11.6881 1.05879 11.7526C0.935785 11.8216 1.03629 11.8066 1.55904 11.6738C2.51379 11.4323 3.75504 11.2463 5.29253 11.1188L5.46503 11.1038C5.79503 11.8688 6.30279 12.4538 7.02129 12.9113C7.46079 13.1903 8.16504 13.4776 8.51979 13.5226C8.61729 13.5346 8.90078 13.5931 9.14979 13.6516C9.39954 13.7101 9.88778 13.7978 10.2343 13.8481H10.2418L10.2238 13.8601C9.80379 14.0776 9.53078 14.4181 9.34628 14.9528C9.26378 14.9776 9.16179 15.0113 9.05079 15.0503C8.65329 15.1853 8.49954 15.2123 8.09829 15.2153C7.68054 15.2183 7.58078 15.2003 7.33328 15.0833C6.94949 14.8946 6.62818 14.5993 6.40779 14.2328C6.03279 13.6133 5.38254 13.1753 4.84029 13.1753C4.37829 13.1753 4.29054 13.3628 4.62504 13.6366C5.12903 14.0491 5.50554 14.4691 5.66004 14.7901L5.95779 15.4081C6.04029 15.5783 6.21429 15.8093 6.38078 15.9691C6.77229 16.3426 7.15029 16.5211 7.71428 16.6051C8.09229 16.6606 8.18528 16.6606 8.63153 16.6036C8.84678 16.5773 9.02903 16.5466 9.19104 16.5083V17.1488C9.19104 18.4733 9.17603 18.8993 9.12354 19.0238C9.02378 19.2608 8.80103 19.5038 8.58578 19.6141C8.37053 19.7243 8.30378 19.8451 8.39454 19.9561C8.44553 20.0161 8.54228 20.0266 8.86703 20.0056C9.48353 19.9681 9.91929 19.7393 10.142 19.3381C10.2125 19.2083 10.229 18.9481 10.2515 17.5981C10.2755 16.1341 10.286 15.9931 10.3813 15.7831C10.4383 15.6593 10.5215 15.5243 10.5688 15.4876C10.646 15.4231 10.6513 15.5506 10.6513 17.3026C10.6513 19.2361 10.631 19.4701 10.4375 19.8413C10.394 19.9261 10.3115 20.0363 10.2538 20.0888C10.1525 20.1811 10.1098 20.4173 10.1803 20.4886C10.2965 20.6041 10.8793 20.4226 11.1973 20.1721C11.7388 19.7431 11.8033 19.3883 11.8078 16.8271L11.81 15.3233L11.975 15.3383L12.1385 15.3533L12.1655 17.3183C12.1955 19.5323 12.2 19.5646 12.5765 19.9921C12.7903 20.2336 13.0055 20.3671 13.3565 20.4721C13.8245 20.6123 13.9655 20.3948 13.6505 20.0176C13.3078 19.6066 13.2905 19.4498 13.31 17.0213C13.3228 15.4643 13.3228 15.4643 13.4225 15.5551C13.6348 15.7471 13.6753 16.0621 13.6753 17.5223C13.6753 19.3358 13.7278 19.5083 14.3675 19.8248C14.6675 19.9711 14.75 19.9898 15.134 19.9898C15.542 19.9921 15.5668 19.9861 15.5818 19.8796C15.5945 19.7933 15.5443 19.7348 15.3538 19.6186C15.1186 19.4797 14.9329 19.2707 14.8228 19.0208C14.7815 18.9263 14.7538 18.3023 14.735 17.0183C14.708 15.2228 14.702 15.1411 14.5903 14.8598C14.4403 14.4818 14.2093 14.1833 13.9175 13.9853C13.8425 13.9358 13.766 13.8953 13.6678 13.8638C13.7878 13.8518 13.9055 13.8391 14.0188 13.8226C15.1978 13.6651 15.821 13.5346 16.3213 13.3411C17.3788 12.9338 18.095 12.2573 18.4828 11.2981C18.5173 11.2126 18.5518 11.1316 18.5803 11.0656L18.8803 11.0911C20.4178 11.2208 21.659 11.4061 22.6138 11.6483C23.1373 11.7818 23.2363 11.7983 23.1148 11.7278C23.0008 11.6641 22.0033 11.4383 21.3283 11.3251H21.329ZM16.8185 11.3011C16.6438 11.6851 16.1563 12.1786 15.7625 12.3721C15.374 12.5641 14.765 12.7096 14.075 12.7801C13.6025 12.8281 10.9723 12.8423 10.538 12.7996C9.10029 12.6586 8.29554 12.3818 7.70079 11.8276C7.13829 11.3011 6.87579 10.5863 6.92079 9.70657C6.95079 9.15607 7.08353 8.81032 7.43079 8.39032C7.74578 8.00782 8.07879 7.77157 8.47029 7.65157C8.79879 7.55107 9.80529 7.54207 11.1568 7.62907C11.7545 7.66657 12.2488 7.66657 12.8458 7.62907C14.2603 7.53907 15.2045 7.54957 15.5533 7.65757C16.1008 7.82707 16.601 8.28307 16.901 8.89057C17.036 9.16207 17.063 9.27757 17.0825 9.69682C17.1095 10.2743 17.0098 10.8871 16.82 11.3003L16.8185 11.3011ZM9.68604 8.82157C8.88128 8.68057 8.42154 10.0591 9.03878 10.7618C9.33128 11.0948 9.59153 11.1496 9.91628 10.9471C10.2185 10.7596 10.3813 10.4071 10.3813 9.95107C10.3813 9.34207 10.1053 8.89507 9.68529 8.82007L9.68604 8.82157ZM14.5708 8.90407C13.766 8.76307 13.3055 10.1393 13.9228 10.8436C14.2175 11.1773 14.4778 11.2336 14.8033 11.0288C15.1033 10.8413 15.2683 10.4888 15.2683 10.0328C15.2683 9.42682 14.9908 8.97832 14.5708 8.90407ZM12.4063 11.6131C12.3883 11.6686 12.3043 11.7511 12.2188 11.7953C12.005 11.9056 11.8513 11.8673 11.624 11.6603C11.4838 11.5343 11.42 11.4676 11.3765 11.6003C11.3375 11.7233 11.5865 11.9701 11.78 12.0458C11.957 12.1171 12.0838 12.1193 12.275 12.0383C12.4663 11.9596 12.6328 11.7458 12.6328 11.6071C12.6328 11.4781 12.4475 11.4841 12.4055 11.6146L12.4063 11.6131ZM12.1678 11.1818C12.29 11.0731 12.3178 10.8518 12.2008 10.7333C12.0838 10.6148 11.846 10.6336 11.753 10.7656C11.6443 10.9201 11.702 11.0378 11.7793 11.1631C11.8993 11.2561 12.0605 11.2756 12.167 11.1811L12.1678 11.1818Z" fill="#7A7A7A"/>
</svg>
